<?xml version="1.0" encoding="utf-8"?>
<!-- Generator: Adobe Illustrator 27.3.1, SVG Export Plug-In . SVG Version: 6.00 Build 0)  -->
<svg version="1.1" id="Livello_1" xmlns="http://www.w3.org/2000/svg" xmlns:xlink="http://www.w3.org/1999/xlink" x="0px" y="0px"
	 viewBox="0 0 421.5 541.9" style="enable-background:new 0 0 421.5 541.9;" xml:space="preserve">
<style type="text/css">
	.st0{fill-rule:evenodd;clip-rule:evenodd;}
</style>
<g>
	<path class="st0" d="M334.6,293.4h-53.9v-63.2h53.9V293.4z M341.4,196.3h-67.5c-7.5,0.3-14.5,3.6-19.6,9.1
		c-5.1,5.5-7.7,12.8-7.4,20.3v72.1c-0.3,7.5,2.4,14.8,7.5,20.3c5.1,5.5,12.1,8.8,19.6,9.1h67.5c7.5-0.3,14.5-3.6,19.6-9.1
		s7.8-12.8,7.5-20.3v-72.1c0.3-7.5-2.4-14.8-7.5-20.3C356,199.9,348.9,196.6,341.4,196.3L341.4,196.3z M382.2,508l-149.1,0
		c-3,0-5.4-2.4-5.4-5.4v-9.3h160v9.3C387.6,505.5,385.2,507.9,382.2,508L382.2,508z M188.4,508l-149.1,0c-3,0-5.4-2.4-5.4-5.4V466
		h160v36.5v0C193.8,505.5,191.4,507.9,188.4,508L188.4,508z M39.3,112.6h149.1c3,0.1,5.4,2.4,5.4,5.4v36.5H33.9v-36.5
		C33.9,115.1,36.3,112.7,39.3,112.6L39.3,112.6z M227.7,394.6l160,0V156.2h-160V394.6L227.7,394.6z M227.7,428.4l160,0v30.9h-160
		V428.4z M193.8,409.4v22.8h-160v-22.8H193.8z M193.8,375.5h-160v-187h160V375.5z M227.7,39.2c0.1-3,2.4-5.4,5.4-5.4h149.1
		c3,0.1,5.4,2.4,5.4,5.4v83.1h-160L227.7,39.2z M382.2-0.1H233.1c-10.4,0-20.4,4.2-27.8,11.5c-7.4,7.4-11.5,17.4-11.5,27.8v40
		c-1.8-0.3-3.6-0.4-5.4-0.4H39.3c-10.4,0-20.4,4.2-27.8,11.5C4.2,97.7,0,107.7,0,118.1v384.5C0,513,4.2,523,11.5,530.3
		c7.4,7.4,17.4,11.5,27.8,11.5h149.1c8,0,15.8-2.4,22.4-7c6.6,4.6,14.4,7,22.4,7h149.1c10.4,0,20.4-4.2,27.8-11.5
		c7.4-7.4,11.5-17.4,11.5-27.8V39.2c0-10.4-4.2-20.4-11.5-27.8C402.6,4.1,392.6-0.1,382.2-0.1L382.2-0.1z M86.9,248.5v44.9h53.9
		v-44.9H86.9z M80.1,327.3h67.5c7.2,0,14.1-2.9,19.1-7.9c5.1-5.1,7.9-12,7.9-19.1v-58.5c0-7.2-2.9-14-7.9-19.1
		c-5.1-5.1-11.9-7.9-19.1-7.9H80.1c-7.2,0-14.1,2.9-19.1,7.9S53,234.5,53,241.6v58.5c0,7.2,2.9,14.1,7.9,19.1
		C66,324.4,72.9,327.3,80.1,327.3L80.1,327.3z"/>
</g>
</svg>
